<svg width="17" height="20" viewBox="0 0 17 20" fill="none" xmlns="http://www.w3.org/2000/svg">
<path fill-rule="evenodd" clip-rule="evenodd" d="M16.4817 14.0823C15.8054 13.8849 15.1978 13.4242 14.6704 12.7C14.1431 11.976 13.8794 11.1532 13.8794 10.2537C13.8794 9.42001 14.1316 8.66293 14.6246 7.98278C14.8997 7.59894 15.3354 7.1711 15.9315 6.68831C15.5417 6.22756 15.1404 5.85465 14.7392 5.5914C14.0284 5.11956 13.2145 4.87832 12.2973 4.87832C11.7356 4.87832 11.0707 5.00987 10.3141 5.25126C9.55745 5.50356 9.00713 5.62418 8.67466 5.62418C8.41102 5.62418 7.88368 5.51449 7.09265 5.29509C6.29011 5.07571 5.62525 4.96602 5.0635 4.96602C3.74512 4.96602 2.66747 5.49263 1.80766 6.5457C0.947852 7.60986 0.512207 8.97017 0.512207 10.6486C0.512207 12.4477 1.08544 14.2798 2.19747 16.1666C3.3324 18.0535 4.46733 19.008 5.64816 19.008C6.02649 19.008 6.5309 18.8874 7.16142 18.6351C7.78049 18.3937 8.33077 18.2729 8.78934 18.2729C9.25934 18.2729 9.844 18.3826 10.5204 18.624C11.2082 18.8545 11.7356 18.9751 12.1254 18.9751C13.0998 18.9751 14.0858 18.262 15.0717 16.8249C15.7366 15.8705 16.1952 14.9489 16.4817 14.0823ZM12.1712 1.21419C12.1712 1.13742 12.1598 1.07156 12.1598 0.994792C12.1483 0.92895 12.1254 0.852182 12.1024 0.753418C10.7726 1.04957 9.80965 1.58727 9.23641 2.37711C8.66323 3.16696 8.36518 4.11033 8.34225 5.19632C8.88102 5.15248 9.27082 5.08663 9.53447 5.00987C9.94718 4.87832 10.3599 4.61493 10.7726 4.22002C11.2541 3.75925 11.6095 3.25465 11.8388 2.70618C12.0566 2.16864 12.1712 1.66404 12.1712 1.21419Z" fill="white"/>
</svg>
