<svg width="18" height="14" viewBox="0 0 18 14" fill="none" xmlns="http://www.w3.org/2000/svg">
<path fill-rule="evenodd" clip-rule="evenodd" d="M17.1731 2.97223C17.1731 2.69413 17.0665 2.41587 16.8746 2.21566L15.4247 0.702569C15.2328 0.502194 14.9663 0.391019 14.6997 0.391019C14.4332 0.391019 14.1667 0.502194 13.9747 0.702569L6.98106 8.01248L3.84667 4.73014C3.65477 4.52993 3.38824 4.41859 3.12171 4.41859C2.85516 4.41859 2.58862 4.52993 2.39672 4.73014L0.946816 6.24342C0.754897 6.44363 0.648326 6.7217 0.648326 6.99998C0.648326 7.27806 0.754897 7.55615 0.946816 7.75653L4.80617 11.7841L6.25608 13.2974C6.448 13.4976 6.71453 13.6089 6.98106 13.6089C7.2476 13.6089 7.51407 13.4976 7.70597 13.2974L9.15594 11.7841L16.8746 3.72877C17.0665 3.52858 17.1731 3.25049 17.1731 2.97223Z" fill="white"/>
</svg>
