<svg width="662" height="45" viewBox="0 0 662 45" fill="none" xmlns="http://www.w3.org/2000/svg">
<path opacity="0.98" d="M8.47656 24.8418C8.35352 25.8945 7.96387 26.708 7.30762 27.2822C6.65592 27.8519 5.78776 28.1367 4.70312 28.1367C3.52734 28.1367 2.58398 27.7152 1.87305 26.8721C1.16667 26.029 0.813477 24.901 0.813477 23.4883V22.5312C0.813477 21.6061 0.977539 20.7926 1.30566 20.0908C1.63835 19.389 2.10775 18.8512 2.71387 18.4775C3.31999 18.0993 4.02181 17.9102 4.81934 17.9102C5.87663 17.9102 6.72428 18.2064 7.3623 18.7988C8.00033 19.3867 8.37174 20.2025 8.47656 21.2461H7.15723C7.04329 20.4531 6.79492 19.8789 6.41211 19.5234C6.03385 19.168 5.50293 18.9902 4.81934 18.9902C3.98079 18.9902 3.32227 19.3001 2.84375 19.9199C2.36979 20.5397 2.13281 21.4215 2.13281 22.5654V23.5293C2.13281 24.6094 2.3584 25.4684 2.80957 26.1064C3.26074 26.7445 3.89193 27.0635 4.70312 27.0635C5.43229 27.0635 5.99056 26.8994 6.37793 26.5713C6.76986 26.2386 7.02962 25.6621 7.15723 24.8418H8.47656ZM13.6514 21.7383C13.46 21.7064 13.2526 21.6904 13.0293 21.6904C12.1999 21.6904 11.637 22.0436 11.3408 22.75V28H10.0762V20.6035H11.3066L11.3271 21.458C11.7419 20.7972 12.3298 20.4668 13.0908 20.4668C13.3369 20.4668 13.5238 20.4987 13.6514 20.5625V21.7383ZM17.7529 28.1367C16.7503 28.1367 15.9346 27.8086 15.3057 27.1523C14.6768 26.4915 14.3623 25.6097 14.3623 24.5068V24.2744C14.3623 23.5407 14.5013 22.8867 14.7793 22.3125C15.0618 21.7337 15.4538 21.2826 15.9551 20.959C16.4609 20.6309 17.0078 20.4668 17.5957 20.4668C18.5573 20.4668 19.3047 20.7835 19.8379 21.417C20.3711 22.0505 20.6377 22.9574 20.6377 24.1377V24.6641H15.627C15.6452 25.3932 15.8571 25.9834 16.2627 26.4346C16.6729 26.8812 17.1924 27.1045 17.8213 27.1045C18.2679 27.1045 18.6462 27.0133 18.9561 26.8311C19.266 26.6488 19.5371 26.4072 19.7695 26.1064L20.542 26.708C19.9222 27.6605 18.9925 28.1367 17.7529 28.1367ZM17.5957 21.5059C17.0853 21.5059 16.6569 21.6927 16.3105 22.0664C15.9642 22.4355 15.75 22.9551 15.668 23.625H19.373V23.5293C19.3366 22.8867 19.1634 22.39 18.8535 22.0391C18.5436 21.6836 18.1243 21.5059 17.5957 21.5059ZM21.7998 24.2402C21.7998 23.1055 22.0687 22.194 22.6064 21.5059C23.1442 20.8132 23.8483 20.4668 24.7188 20.4668C25.5846 20.4668 26.2705 20.763 26.7764 21.3555V17.5H28.041V28H26.8789L26.8174 27.207C26.3115 27.8268 25.6074 28.1367 24.7051 28.1367C23.8483 28.1367 23.1488 27.7858 22.6064 27.084C22.0687 26.3822 21.7998 25.4661 21.7998 24.3359V24.2402ZM23.0645 24.3838C23.0645 25.2223 23.2376 25.8786 23.584 26.3525C23.9303 26.8265 24.4089 27.0635 25.0195 27.0635C25.8216 27.0635 26.4072 26.7035 26.7764 25.9834V22.5859C26.3981 21.8887 25.8171 21.54 25.0332 21.54C24.4134 21.54 23.9303 21.7793 23.584 22.2578C23.2376 22.7363 23.0645 23.445 23.0645 24.3838ZM31.3838 28H30.1191V20.6035H31.3838V28ZM30.0166 18.6416C30.0166 18.4365 30.0781 18.2633 30.2012 18.1221C30.3288 17.9808 30.5156 17.9102 30.7617 17.9102C31.0078 17.9102 31.1947 17.9808 31.3223 18.1221C31.4499 18.2633 31.5137 18.4365 31.5137 18.6416C31.5137 18.8467 31.4499 19.0176 31.3223 19.1543C31.1947 19.291 31.0078 19.3594 30.7617 19.3594C30.5156 19.3594 30.3288 19.291 30.2012 19.1543C30.0781 19.0176 30.0166 18.8467 30.0166 18.6416ZM35.1299 18.8125V20.6035H36.5107V21.5811H35.1299V26.168C35.1299 26.4642 35.1914 26.6875 35.3145 26.8379C35.4375 26.9837 35.6471 27.0566 35.9434 27.0566C36.0892 27.0566 36.2897 27.0293 36.5449 26.9746V28C36.2122 28.0911 35.8887 28.1367 35.5742 28.1367C35.0091 28.1367 34.583 27.9658 34.2959 27.624C34.0088 27.2822 33.8652 26.7969 33.8652 26.168V21.5811H32.5186V20.6035H33.8652V18.8125H35.1299ZM42.3008 26.0381C42.3008 25.6963 42.1709 25.432 41.9111 25.2451C41.6559 25.0537 41.207 24.8896 40.5645 24.7529C39.9264 24.6162 39.4183 24.4521 39.04 24.2607C38.6663 24.0693 38.3883 23.8415 38.2061 23.5771C38.0283 23.3128 37.9395 22.9984 37.9395 22.6338C37.9395 22.0277 38.1947 21.515 38.7051 21.0957C39.2201 20.6764 39.8763 20.4668 40.6738 20.4668C41.5124 20.4668 42.1914 20.6833 42.7109 21.1162C43.235 21.5492 43.4971 22.1029 43.4971 22.7773H42.2256C42.2256 22.431 42.0775 22.1325 41.7812 21.8818C41.4896 21.6312 41.1204 21.5059 40.6738 21.5059C40.2135 21.5059 39.8535 21.6061 39.5938 21.8066C39.334 22.0072 39.2041 22.2692 39.2041 22.5928C39.2041 22.8981 39.3249 23.1283 39.5664 23.2832C39.8079 23.4382 40.2432 23.5863 40.8721 23.7275C41.5055 23.8688 42.0182 24.0374 42.4102 24.2334C42.8021 24.4294 43.0915 24.6663 43.2783 24.9443C43.4697 25.2178 43.5654 25.5527 43.5654 25.9492C43.5654 26.61 43.3011 27.141 42.7725 27.542C42.2438 27.9385 41.5579 28.1367 40.7148 28.1367C40.1224 28.1367 39.5983 28.0319 39.1426 27.8223C38.6868 27.6126 38.3291 27.321 38.0693 26.9473C37.8141 26.569 37.6865 26.1611 37.6865 25.7236H38.9512C38.974 26.1475 39.1426 26.4847 39.457 26.7354C39.776 26.9814 40.1953 27.1045 40.7148 27.1045C41.1934 27.1045 41.5762 27.0088 41.8633 26.8174C42.1549 26.6214 42.3008 26.3617 42.3008 26.0381Z" fill="white"/>
<line x1="64.5" y1="28" x2="64.5" y2="20" stroke="#4E4E4E"/>
<path opacity="0.98" d="M87.4678 24.1035V28H86.1553V18.0469H89.8262C90.9154 18.0469 91.7676 18.3249 92.3828 18.8809C93.0026 19.4368 93.3125 20.1729 93.3125 21.0889C93.3125 22.055 93.0094 22.8001 92.4033 23.3242C91.8018 23.8438 90.9382 24.1035 89.8125 24.1035H87.4678ZM87.4678 23.0303H89.8262C90.528 23.0303 91.0658 22.8662 91.4395 22.5381C91.8132 22.2054 92 21.7269 92 21.1025C92 20.5101 91.8132 20.0361 91.4395 19.6807C91.0658 19.3252 90.5531 19.1406 89.9014 19.127H87.4678V23.0303ZM98.3643 21.7383C98.1729 21.7064 97.9655 21.6904 97.7422 21.6904C96.9128 21.6904 96.3499 22.0436 96.0537 22.75V28H94.7891V20.6035H96.0195L96.04 21.458C96.4548 20.7972 97.0426 20.4668 97.8037 20.4668C98.0498 20.4668 98.2367 20.4987 98.3643 20.5625V21.7383ZM100.907 28H99.6426V20.6035H100.907V28ZM99.54 18.6416C99.54 18.4365 99.6016 18.2633 99.7246 18.1221C99.8522 17.9808 100.039 17.9102 100.285 17.9102C100.531 17.9102 100.718 17.9808 100.846 18.1221C100.973 18.2633 101.037 18.4365 101.037 18.6416C101.037 18.8467 100.973 19.0176 100.846 19.1543C100.718 19.291 100.531 19.3594 100.285 19.3594C100.039 19.3594 99.8522 19.291 99.7246 19.1543C99.6016 19.0176 99.54 18.8467 99.54 18.6416ZM105.378 26.2842L107.21 20.6035H108.502L105.85 28H104.886L102.206 20.6035H103.498L105.378 26.2842ZM114.176 28C114.103 27.8542 114.044 27.5944 113.998 27.2207C113.41 27.8314 112.708 28.1367 111.893 28.1367C111.163 28.1367 110.564 27.9316 110.095 27.5215C109.63 27.1068 109.397 26.5827 109.397 25.9492C109.397 25.179 109.689 24.582 110.272 24.1582C110.86 23.7298 111.685 23.5156 112.747 23.5156H113.978V22.9346C113.978 22.4925 113.845 22.1416 113.581 21.8818C113.317 21.6175 112.927 21.4854 112.412 21.4854C111.961 21.4854 111.583 21.5993 111.277 21.8271C110.972 22.055 110.819 22.3307 110.819 22.6543H109.548C109.548 22.2852 109.678 21.9297 109.938 21.5879C110.202 21.2415 110.557 20.9681 111.004 20.7676C111.455 20.5671 111.95 20.4668 112.487 20.4668C113.34 20.4668 114.007 20.681 114.49 21.1094C114.973 21.5332 115.224 22.1188 115.242 22.8662V26.2705C115.242 26.9495 115.329 27.4896 115.502 27.8906V28H114.176ZM112.077 27.0361C112.474 27.0361 112.85 26.9336 113.205 26.7285C113.561 26.5234 113.818 26.2568 113.978 25.9287V24.4111H112.986C111.437 24.4111 110.662 24.8646 110.662 25.7715C110.662 26.168 110.794 26.4779 111.059 26.7012C111.323 26.9245 111.662 27.0361 112.077 27.0361ZM120.191 27.1045C120.643 27.1045 121.037 26.9678 121.374 26.6943C121.711 26.4209 121.898 26.0791 121.935 25.6689H123.131C123.108 26.0928 122.962 26.4961 122.693 26.8789C122.424 27.2617 122.064 27.5671 121.613 27.7949C121.167 28.0228 120.693 28.1367 120.191 28.1367C119.184 28.1367 118.382 27.8018 117.785 27.1318C117.193 26.4574 116.896 25.5368 116.896 24.3701V24.1582C116.896 23.4382 117.029 22.7979 117.293 22.2373C117.557 21.6768 117.936 21.2415 118.428 20.9316C118.924 20.6217 119.51 20.4668 120.185 20.4668C121.014 20.4668 121.702 20.7152 122.249 21.2119C122.8 21.7087 123.094 22.3535 123.131 23.1465H121.935C121.898 22.668 121.716 22.276 121.388 21.9707C121.064 21.6608 120.663 21.5059 120.185 21.5059C119.542 21.5059 119.043 21.7383 118.688 22.2031C118.337 22.6634 118.161 23.3311 118.161 24.2061V24.4453C118.161 25.2975 118.337 25.9538 118.688 26.4141C119.038 26.8743 119.54 27.1045 120.191 27.1045ZM126.973 26.1475L128.695 20.6035H130.049L127.075 29.1416C126.615 30.3721 125.883 30.9873 124.881 30.9873L124.642 30.9668L124.17 30.8779V29.8525L124.512 29.8799C124.94 29.8799 125.273 29.7933 125.51 29.6201C125.751 29.4469 125.95 29.1302 126.104 28.6699L126.385 27.918L123.746 20.6035H125.127L126.973 26.1475Z" fill="white"/>
<line x1="150.5" y1="28" x2="150.5" y2="20" stroke="#4E4E4E"/>
<path opacity="0.98" d="M179.812 23.3447C179.812 24.32 179.647 25.1722 179.319 25.9014C178.991 26.626 178.526 27.1797 177.925 27.5625C177.323 27.9453 176.621 28.1367 175.819 28.1367C175.035 28.1367 174.34 27.9453 173.734 27.5625C173.128 27.1751 172.657 26.626 172.319 25.915C171.987 25.1995 171.816 24.3724 171.807 23.4336V22.7158C171.807 21.7588 171.973 20.9134 172.306 20.1797C172.638 19.446 173.108 18.8854 173.714 18.498C174.325 18.1061 175.022 17.9102 175.806 17.9102C176.603 17.9102 177.305 18.1038 177.911 18.4912C178.522 18.874 178.991 19.4323 179.319 20.166C179.647 20.8952 179.812 21.7451 179.812 22.7158V23.3447ZM178.506 22.7021C178.506 21.5218 178.269 20.6172 177.795 19.9883C177.321 19.3548 176.658 19.0381 175.806 19.0381C174.976 19.0381 174.322 19.3548 173.844 19.9883C173.37 20.6172 173.126 21.4922 173.112 22.6133V23.3447C173.112 24.4886 173.352 25.3887 173.83 26.0449C174.313 26.6966 174.976 27.0225 175.819 27.0225C176.667 27.0225 177.323 26.7148 177.788 26.0996C178.253 25.4798 178.492 24.5934 178.506 23.4404V22.7021ZM186.148 27.2686C185.656 27.8473 184.934 28.1367 183.981 28.1367C183.193 28.1367 182.591 27.9089 182.177 27.4531C181.767 26.9928 181.559 26.3138 181.555 25.416V20.6035H182.819V25.3818C182.819 26.5029 183.275 27.0635 184.187 27.0635C185.153 27.0635 185.795 26.7035 186.114 25.9834V20.6035H187.379V28H186.176L186.148 27.2686ZM192.882 21.7383C192.69 21.7064 192.483 21.6904 192.26 21.6904C191.43 21.6904 190.868 22.0436 190.571 22.75V28H189.307V20.6035H190.537L190.558 21.458C190.972 20.7972 191.56 20.4668 192.321 20.4668C192.567 20.4668 192.754 20.4987 192.882 20.5625V21.7383ZM199.239 18.8125V20.6035H200.62V21.5811H199.239V26.168C199.239 26.4642 199.301 26.6875 199.424 26.8379C199.547 26.9837 199.757 27.0566 200.053 27.0566C200.199 27.0566 200.399 27.0293 200.654 26.9746V28C200.322 28.0911 199.998 28.1367 199.684 28.1367C199.118 28.1367 198.692 27.9658 198.405 27.624C198.118 27.2822 197.975 26.7969 197.975 26.168V21.5811H196.628V20.6035H197.975V18.8125H199.239ZM205.173 28.1367C204.17 28.1367 203.354 27.8086 202.726 27.1523C202.097 26.4915 201.782 25.6097 201.782 24.5068V24.2744C201.782 23.5407 201.921 22.8867 202.199 22.3125C202.482 21.7337 202.874 21.2826 203.375 20.959C203.881 20.6309 204.428 20.4668 205.016 20.4668C205.977 20.4668 206.725 20.7835 207.258 21.417C207.791 22.0505 208.058 22.9574 208.058 24.1377V24.6641H203.047C203.065 25.3932 203.277 25.9834 203.683 26.4346C204.093 26.8812 204.612 27.1045 205.241 27.1045C205.688 27.1045 206.066 27.0133 206.376 26.8311C206.686 26.6488 206.957 26.4072 207.189 26.1064L207.962 26.708C207.342 27.6605 206.412 28.1367 205.173 28.1367ZM205.016 21.5059C204.505 21.5059 204.077 21.6927 203.73 22.0664C203.384 22.4355 203.17 22.9551 203.088 23.625H206.793V23.5293C206.757 22.8867 206.583 22.39 206.273 22.0391C205.964 21.6836 205.544 21.5059 205.016 21.5059ZM214.094 28C214.021 27.8542 213.962 27.5944 213.916 27.2207C213.328 27.8314 212.626 28.1367 211.811 28.1367C211.081 28.1367 210.482 27.9316 210.013 27.5215C209.548 27.1068 209.315 26.5827 209.315 25.9492C209.315 25.179 209.607 24.582 210.19 24.1582C210.778 23.7298 211.603 23.5156 212.665 23.5156H213.896V22.9346C213.896 22.4925 213.763 22.1416 213.499 21.8818C213.235 21.6175 212.845 21.4854 212.33 21.4854C211.879 21.4854 211.501 21.5993 211.195 21.8271C210.89 22.055 210.737 22.3307 210.737 22.6543H209.466C209.466 22.2852 209.596 21.9297 209.855 21.5879C210.12 21.2415 210.475 20.9681 210.922 20.7676C211.373 20.5671 211.868 20.4668 212.405 20.4668C213.257 20.4668 213.925 20.681 214.408 21.1094C214.891 21.5332 215.142 22.1188 215.16 22.8662V26.2705C215.16 26.9495 215.247 27.4896 215.42 27.8906V28H214.094ZM211.995 27.0361C212.392 27.0361 212.768 26.9336 213.123 26.7285C213.479 26.5234 213.736 26.2568 213.896 25.9287V24.4111H212.904C211.355 24.4111 210.58 24.8646 210.58 25.7715C210.58 26.168 210.712 26.4779 210.977 26.7012C211.241 26.9245 211.58 27.0361 211.995 27.0361ZM218.332 20.6035L218.366 21.4238C218.909 20.7858 219.64 20.4668 220.561 20.4668C221.595 20.4668 222.299 20.8633 222.673 21.6562C222.919 21.3008 223.238 21.0137 223.63 20.7949C224.026 20.5762 224.493 20.4668 225.031 20.4668C226.654 20.4668 227.479 21.3258 227.506 23.0439V28H226.241V23.1191C226.241 22.5905 226.12 22.1963 225.879 21.9365C225.637 21.6722 225.232 21.54 224.662 21.54C224.193 21.54 223.803 21.6813 223.493 21.9639C223.183 22.2419 223.003 22.6178 222.953 23.0918V28H221.682V23.1533C221.682 22.0778 221.155 21.54 220.103 21.54C219.273 21.54 218.706 21.8932 218.4 22.5996V28H217.136V20.6035H218.332ZM233.727 26.0381C233.727 25.6963 233.597 25.432 233.337 25.2451C233.082 25.0537 232.633 24.8896 231.99 24.7529C231.352 24.6162 230.844 24.4521 230.466 24.2607C230.092 24.0693 229.814 23.8415 229.632 23.5771C229.454 23.3128 229.365 22.9984 229.365 22.6338C229.365 22.0277 229.62 21.515 230.131 21.0957C230.646 20.6764 231.302 20.4668 232.1 20.4668C232.938 20.4668 233.617 20.6833 234.137 21.1162C234.661 21.5492 234.923 22.1029 234.923 22.7773H233.651C233.651 22.431 233.503 22.1325 233.207 21.8818C232.915 21.6312 232.546 21.5059 232.1 21.5059C231.639 21.5059 231.279 21.6061 231.02 21.8066C230.76 22.0072 230.63 22.2692 230.63 22.5928C230.63 22.8981 230.751 23.1283 230.992 23.2832C231.234 23.4382 231.669 23.5863 232.298 23.7275C232.931 23.8688 233.444 24.0374 233.836 24.2334C234.228 24.4294 234.517 24.6663 234.704 24.9443C234.896 25.2178 234.991 25.5527 234.991 25.9492C234.991 26.61 234.727 27.141 234.198 27.542C233.67 27.9385 232.984 28.1367 232.141 28.1367C231.548 28.1367 231.024 28.0319 230.568 27.8223C230.113 27.6126 229.755 27.321 229.495 26.9473C229.24 26.569 229.112 26.1611 229.112 25.7236H230.377C230.4 26.1475 230.568 26.4847 230.883 26.7354C231.202 26.9814 231.621 27.1045 232.141 27.1045C232.619 27.1045 233.002 27.0088 233.289 26.8174C233.581 26.6214 233.727 26.3617 233.727 26.0381Z" fill="white"/>
<path d="M640.156 0.000771469L639.997 0C639.242 0 638.493 0.0393656 637.757 0.114239C637.415 0.148974 637.076 0.193745 636.74 0.243918C636.718 0.246234 636.695 0.248549 636.674 0.252409C627.63 1.62947 620.383 8.53482 618.488 17.4008C618.484 17.4193 618.479 17.4371 618.475 17.4548C618.415 17.7443 618.362 18.0368 618.312 18.3301C618.299 18.4042 618.284 18.4776 618.272 18.5532C618.233 18.7995 618.202 19.0488 618.172 19.2981C618.157 19.4208 618.138 19.542 618.125 19.6655C618.102 19.8801 618.087 20.0978 618.071 20.3139C618.059 20.4722 618.044 20.6296 618.035 20.7879C618.023 20.9855 618.021 21.1846 618.015 21.3822C618.012 21.5366 618.002 21.6902 618 21.8453C618 21.87 618.002 21.8947 618.002 21.921C618.002 21.9472 618 21.9743 618 22.0013C618 22.0707 618.007 22.1379 618.008 22.2074C618.011 22.5972 618.024 22.9847 618.049 23.3698C618.057 23.5011 618.065 23.6323 618.076 23.7627C618.11 24.1888 618.154 24.6134 618.212 25.0325C618.217 25.0695 618.22 25.1074 618.225 25.1452C618.292 25.6083 618.377 26.0653 618.471 26.5192C618.492 26.6203 618.516 26.7199 618.539 26.8202C618.624 27.2015 618.719 27.579 618.825 27.9533C618.847 28.0321 618.867 28.11 618.889 28.1872C619.024 28.6419 619.169 29.0896 619.33 29.5303C619.338 29.5512 619.346 29.5712 619.353 29.5921C619.508 30.0104 619.677 30.4211 619.855 30.8271C619.884 30.8943 619.914 30.9622 619.944 31.0286C620.333 31.8877 620.773 32.7182 621.265 33.5156C621.275 33.5318 621.283 33.548 621.292 33.5642C621.291 33.5882 621.298 33.6129 621.297 33.6383C621.324 33.6792 621.352 33.7186 621.375 33.7618C621.399 33.7765 621.423 33.7888 621.447 33.8027C622.177 34.9475 623.011 36.0212 623.935 37.0092C623.941 37.0161 623.947 37.0223 623.954 37.0285C624.872 38.0096 625.88 38.9088 626.965 39.7093C626.981 39.7216 626.996 39.7317 627.013 39.744C627.346 39.9879 627.687 40.2234 628.035 40.4503C628.075 40.4758 628.113 40.5012 628.153 40.5267C628.897 41.0037 629.669 41.4406 630.471 41.8273C630.486 41.8351 630.501 41.8412 630.516 41.8482C630.881 42.0234 631.25 42.1863 631.625 42.3414C631.71 42.3762 631.795 42.4094 631.878 42.4433C632.205 42.5738 632.537 42.6957 632.871 42.8115C632.952 42.8401 633.032 42.8694 633.114 42.8956C633.93 43.1658 634.766 43.3881 635.62 43.561C635.73 43.5834 635.841 43.6027 635.952 43.6228C636.269 43.6814 636.588 43.7347 636.911 43.7802C637.04 43.798 637.17 43.8173 637.3 43.8327C637.645 43.8752 637.991 43.9084 638.339 43.9346C638.43 43.9416 638.521 43.9516 638.612 43.957C639.02 43.9825 639.432 43.9995 639.845 44.0025L640.004 44.0033C652.047 44.0033 661.914 34.2041 661.999 22.1587C662.084 10.0253 652.286 0.0872235 640.156 0.000771469ZM638.065 42.4997C637.761 42.4711 637.459 42.4348 637.159 42.3931C637.119 42.3877 637.08 42.3823 637.04 42.3769C636.739 42.3337 636.441 42.2828 636.145 42.2272C636.108 42.2195 636.07 42.2133 636.032 42.2063C635.735 42.1477 635.44 42.0828 635.148 42.0111C635.113 42.0026 635.077 41.9948 635.041 41.9864C634.747 41.913 634.457 41.8343 634.167 41.7478C634.136 41.7378 634.102 41.7293 634.071 41.7201C633.781 41.6321 633.493 41.5387 633.208 41.4383C633.179 41.4275 633.148 41.4182 633.119 41.4074C632.833 41.3048 632.549 41.1975 632.268 41.0832C632.242 41.0717 632.216 41.0616 632.189 41.0508C631.906 40.935 631.627 40.8115 631.351 40.6834C631.328 40.6726 631.304 40.6626 631.28 40.651C631.003 40.5205 630.728 40.3839 630.458 40.2419C630.438 40.2311 630.417 40.221 630.397 40.211C630.124 40.0659 629.856 39.9154 629.59 39.7594C629.573 39.7486 629.554 39.7394 629.537 39.7278C629.27 39.5703 629.008 39.4067 628.749 39.2369C628.733 39.2261 628.718 39.2176 628.702 39.2068C628.443 39.0354 628.187 38.8586 627.935 38.6757C627.922 38.6657 627.909 38.6572 627.896 38.6471C627.643 38.4634 627.396 38.2736 627.152 38.079C627.139 38.069 627.128 38.0597 627.116 38.0505C626.873 37.8544 626.634 37.6529 626.4 37.4469C626.387 37.436 626.377 37.4276 626.365 37.4167C626.132 37.2099 625.903 36.9984 625.68 36.7815C625.667 36.7699 625.656 36.7599 625.644 36.7483C625.423 36.5322 625.205 36.3099 624.992 36.0837C624.979 36.0713 624.969 36.0582 624.956 36.0459C624.746 35.8205 624.54 35.5905 624.34 35.3558C624.333 35.3473 624.326 35.3396 624.319 35.3319C627.185 36.6973 630.274 37.7008 633.521 38.2789C634.856 39.8088 636.383 41.2268 638.103 42.5028C638.091 42.502 638.078 42.5012 638.065 42.4997ZM622.41 32.6951C622.007 32.0351 621.639 31.3504 621.312 30.6442C621.293 30.6032 621.275 30.5616 621.257 30.5199C621.114 30.2088 620.98 29.8923 620.853 29.5712C620.828 29.5087 620.804 29.4446 620.779 29.3813C620.657 29.0633 620.541 28.7422 620.435 28.4165C620.421 28.3709 620.405 28.3262 620.39 28.2799C619.897 26.7392 619.578 25.1197 619.462 23.4455C619.461 23.4385 619.461 23.4316 619.46 23.4254C622.048 25.3088 624.93 26.8488 628.032 27.9665C628.818 31.0409 630.208 33.9448 632.145 36.5692C628.671 35.7796 625.409 34.4766 622.448 32.7561C622.435 32.7344 622.423 32.7151 622.41 32.6951ZM619.811 17.9542C619.859 17.718 619.912 17.4841 619.967 17.251C619.987 17.1684 620.005 17.0843 620.025 17.0025C620.076 16.801 620.132 16.6011 620.188 16.4027C620.221 16.2877 620.253 16.1727 620.289 16.0585C620.34 15.884 620.396 15.7119 620.452 15.5398C620.5 15.397 620.55 15.2549 620.6 15.1129C620.651 14.967 620.705 14.8219 620.76 14.6775C620.777 14.6289 620.799 14.5818 620.817 14.534C622.883 16.0322 625.15 17.2943 627.574 18.2792C627.383 19.5011 627.274 20.7423 627.274 22.0013C627.274 23.4679 627.416 24.9129 627.675 26.3293C624.666 25.1521 621.886 23.5597 619.414 21.6277C619.436 20.3973 619.568 19.1947 619.797 18.026C619.802 18.0021 619.805 17.9782 619.811 17.9542ZM621.453 13.0712C621.651 12.6614 621.867 12.26 622.091 11.8655C622.181 11.7073 622.271 11.5498 622.365 11.3947C622.585 11.0304 622.816 10.6737 623.057 10.3248C623.174 10.1543 623.297 9.98675 623.419 9.8208C623.662 9.4912 623.911 9.167 624.173 8.85362C624.31 8.68843 624.452 8.53019 624.594 8.37041C624.803 8.13421 625.017 7.90419 625.236 7.67879C625.338 7.57459 625.436 7.46961 625.539 7.36849C627.094 8.36809 628.77 9.211 630.541 9.87483C629.277 12.0701 628.37 14.4213 627.835 16.8697C625.518 15.9033 623.355 14.6714 621.387 13.214C621.41 13.1662 621.43 13.1176 621.453 13.0712ZM626.834 6.19213C627.1 5.97136 627.369 5.75523 627.647 5.54682C627.806 5.42641 627.97 5.3114 628.133 5.19561C628.37 5.02734 628.61 4.8637 628.855 4.70469C628.998 4.61283 629.141 4.51943 629.286 4.43067C629.633 4.2184 629.985 4.01539 630.346 3.82319C630.47 3.7568 630.597 3.69428 630.722 3.63021C631.048 3.46503 631.378 3.30756 631.713 3.15936C631.799 3.12076 631.885 3.07908 631.972 3.0428C632.391 2.8645 632.818 2.7024 633.25 2.55111C633.342 2.51869 633.435 2.48781 633.528 2.45693C634.461 2.14741 635.422 1.89963 636.408 1.72595C636.454 1.71823 636.498 1.70974 636.545 1.70202C637.059 1.6148 637.579 1.54379 638.105 1.49593C635.335 3.55225 633.045 5.97059 631.296 8.64675C629.642 8.04853 628.079 7.28435 626.621 6.37738C626.692 6.31563 626.763 6.25311 626.834 6.19213ZM640.729 16.3688C643.519 16.7292 645.682 19.1144 645.682 21.9997C645.682 24.8851 643.519 27.2702 640.729 27.6307V16.3688ZM634.252 36.976C632.116 34.428 630.562 31.5619 629.644 28.5052C632.695 29.4392 635.936 29.9657 639.298 30.0313V37.4345C637.581 37.4005 635.896 37.2462 634.252 36.976ZM639.298 38.8393V41.6243C638.007 40.6942 636.821 39.6838 635.747 38.6031C636.914 38.7382 638.099 38.817 639.298 38.8393ZM629.223 26.8897C628.87 25.2973 628.679 23.6639 628.679 22.0005C628.679 20.916 628.762 19.8446 628.914 18.7887C632.157 19.9419 635.652 20.6018 639.298 20.6775V28.6272C635.771 28.5554 632.385 27.9487 629.223 26.8897ZM629.158 17.3846C629.673 14.913 630.603 12.5479 631.904 10.3465C634.239 11.079 636.722 11.5012 639.298 11.5676V19.2726C635.732 19.1962 632.319 18.5347 629.158 17.3846ZM632.684 9.11143C634.391 6.58425 636.616 4.30485 639.297 2.37357V10.1504C637.001 10.0879 634.781 9.73512 632.684 9.11143ZM640.729 29.0487C644.295 28.6828 647.086 25.6608 647.086 21.9997C647.086 18.3386 644.295 15.3167 640.729 14.9508V8.88835C647.641 9.27044 653.153 14.994 653.153 22.0005C653.153 29.0062 647.641 34.7298 640.729 35.1119V29.0487ZM640.729 42.5769V36.5129C648.416 36.1292 654.557 29.7796 654.557 22.0005C654.557 14.2198 648.416 7.86945 640.729 7.48582V1.42337C651.814 1.81318 660.673 10.9848 660.595 22.1456C660.517 33.1775 651.672 42.1917 640.729 42.5769Z" fill="white"/>
</svg>
